{"title":"The Long Ships [1964] Richard Widmark,Sidney Poitier,Rosanna Sch","uid":4505685,"size":735661700,"categoryP":"video","categoryS":"movies","magnet":"?xt=urn:btih:823ced32b425b38c7fd32c918a49eb29d0a1c56d&amp;dn=The+Long+Ships+%5B1964%5D+Richard+Widmark%2CSidney+Poitier%2CRosanna+Sch&amp;tr=udp%3A%2F%2Ftracker.openbittorrent.com%3A80&amp;tr=udp%3A%2F%2Fopen.demonii.com%3A1337&amp;tr=udp%3A%2F%2Ftracker.coppersurfer.tk%3A6969&amp;tr=udp%3A%2F%2Fexodus.desync.com%3A6969","seeders":6,"leechers":1,"uploader":"johnefp","files":-1,"time":1226588486,"description":"In this elaborately mounted seafaring adventure, Rolfe (Richard Widmark) is a Viking leader with the cunning and devious mind of a pirate. Rolfe tells others sailors of &quot;The Mother of Voices,&quot; a mammoth bell made of gold and as tall as three men, but he adds enough incorrect details to throw them off the proper trail. However, Aly Mansuh (Sidney Poitier), the leader of a group of ambitious Moors, sees through Rolfe&amp;#039;s story, and soon the two are in a breakneck race to be the first to capture the precious bell. The Long Ships also features Russ Tamblyn and Oscar Homolka.\n &lt;a href=&quot;\nhttp://www.imdb.com/title/tt0057259/&quot; rel=&quot;nofollow&quot; target=&quot;_NEW&quot;&gt;\nhttp://www.imdb.com/title/tt0057259/&lt;/a&gt;\n\nSUBS\n &lt;a href=&quot;\nhttp://www.opensubtitles.org/en/search/imdbid-57259/sublanguageid-all&quot; rel=&quot;nofollow&quot; target=&quot;_NEW&quot;&gt;\nhttp://www.opensubtitles.org/en/search/imdbid-57259/sublanguageid-all&lt;/a&gt;\n\nDirector:\nJack Cardiff\n\n\n\tRichard Widmark\t... \tRolfe\n\n\tSidney Poitier\t... \tAly Mansuh\n\tRuss Tamblyn\t... \tOrm\n\tRosanna Schiaffino\t... \tAminah\n\tOskar Homolka\t... \tKrok\n\n   Video\n      Format : MPEG-4 Visual\n      Format settings, BVOP : No\n      Format settings, QPel : No\n      Format settings, GMC : No warppoints\n      Format settings, Matrix : Default\n      Codec ID : XVID\n      Codec ID/Hint : XviD\n      Duration : 2h 0mn\n      Bit rate : 675 Kbps\n      Width : 720 pixels\n      Height : 320 pixels\n      Display aspect ratio : 2.25\n      Frame rate : 25.000 fps\n      Resolution : 24 bits\n      Colorimetry : 4:2:0\n      Scan type : Progressive\n      Bits/(Pixel*Frame) : 0.117\n      Stream size : 583 MiB (83%)\n   Audio\n      Format : MPEG Audio\n      Format version : Version 1\n      Format profile : Layer 3\n      Codec ID : 55\n      Codec ID/Hint : MP3\n      Duration : 2h 0mn\n      Bit rate mode : Constant\n      Bit rate : 128 Kbps\n      Channel(s) : 2 channels\n      Sampling rate : 48.0 KHz\n      Resolution : 16 bits\n      Stream size : 110 MiB (16%)\n      Alignment : Split accross interleaves\n      Interleave, duration : 40 ms (1.00 video frame)\n      Interleave, preload duration : 500 ms\n\nENJOY  AND  SEED\n","torrent":{"xt":"urn:btih:823ced32b425b38c7fd32c918a49eb29d0a1c56d","amp;dn":"The+Long+Ships+%5B1964%5D+Richard+Widmark%2CSidney+Poitier%2CRosanna+Sch","amp;tr":["udp%3A%2F%2Ftracker.openbittorrent.com%3A80","udp%3A%2F%2Fopen.demonii.com%3A1337","udp%3A%2F%2Ftracker.coppersurfer.tk%3A6969","udp%3A%2F%2Fexodus.desync.com%3A6969"],"infoHash":"823ced32b425b38c7fd32c918a49eb29d0a1c56d","infoHashBuffer":{"type":"Buffer","data":[130,60,237,50,180,37,179,140,127,211,44,145,138,73,235,41,208,161,197,109]},"announce":[],"urlList":[]}}